{"scene":0,"asset":{"generator":"ImageToStl.com","version":"2.0"},"scenes":[{"name":"Scene","nodes":[0]}],"nodes":[{"name":"Node0","children":[1,2,3,4,5,6,7,8,9,10,11]},{"name":"Node1","mesh":0},{"name":"Node2","mesh":1},{"name":"Node3","mesh":2},{"name":"Node4","mesh":3},{"name":"Node5","mesh":4},{"name":"Node6","mesh":5},{"name":"Node7","mesh":6},{"name":"Node8","mesh":7},{"name":"Node9","mesh":8},{"name":"Node10","mesh":9},{"name":"Node11","mesh":10}],"materials":[{"name":"SVGMat","pbrMetallicRoughness":{"baseColorFactor":[0.004391,0.001214,0.14996,1.0],"metallicFactor":0.5,"roughnessFactor":0.64},"emissiveFactor":[0.0,0.0,0.0],"doubleSided":true},{"name":"SVGMat.095","pbrMetallicRoughness":{"baseColorFactor":[0.004391,0.001214,0.14996,1.0],"metallicFactor":0.5,"roughnessFactor":0.64},"emissiveFactor":[0.0,0.0,0.0],"doubleSided":true},{"name":"SVGMat.094","pbrMetallicRoughness":{"baseColorFactor":[0.004391,0.001214,0.14996,1.0],"metallicFactor":0.5,"roughnessFactor":0.64},"emissiveFactor":[0.0,0.0,0.0],"doubleSided":true},{"name":"SVGMat.093","pbrMetallicRoughness":{"baseColorFactor":[0.004391,0.001214,0.14996,1.0],"metallicFactor":0.5,"roughnessFactor":0.64},"emissiveFactor":[0.0,0.0,0.0],"doubleSided":true},{"name":"SVGMat.092","pbrMetallicRoughness":{"baseColorFactor":[0.004391,0.001214,0.14996,1.0],"metallicFactor":0.5,"roughnessFactor":0.64},"emissiveFactor":[0.0,0.0,0.0],"doubleSided":true},{"name":"SVGMat.091","pbrMetallicRoughness":{"baseColorFactor":[0.004391,0.001214,0.14996,1.0],"metallicFactor":0.5,"roughnessFactor":0.64},"emissiveFactor":[0.0,0.0,0.0],"doubleSided":true},{"name":"SVGMat.090","pbrMetallicRoughness":{"baseColorFactor":[0.004391,0.001214,0.14996,1.0],"metallicFactor":0.5,"roughnessFactor":0.64},"emissiveFactor":[0.0,0.0,0.0],"doubleSided":true},{"name":"SVGMat.089","pbrMetallicRoughness":{"baseColorFactor":[0.004391,0.001214,0.14996,1.0],"metallicFactor":0.5,"roughnessFactor":0.64},"emissiveFactor":[0.0,0.0,0.0],"doubleSided":true},{"name":"SVGMat.088","pbrMetallicRoughness":{"baseColorFactor":[0.004391,0.001214,0.14996,1.0],"metallicFactor":0.5,"roughnessFactor":0.64},"emissiveFactor":[0.0,0.0,0.0],"doubleSided":true},{"name":"SVGMat.087","pbrMetallicRoughness":{"baseColorFactor":[0.004391,0.001214,0.14996,1.0],"metallicFactor":0.5,"roughnessFactor":0.64},"emissiveFactor":[0.0,0.0,0.0],"doubleSided":true},{"name":"SVGMat.086","pbrMetallicRoughness":{"baseColorFactor":[0.004391,0.001214,0.14996,1.0],"metallicFactor":0.5,"roughnessFactor":0.64},"emissiveFactor":[0.0,0.0,0.0],"doubleSided":true}],"meshes":[{"name":"Mesh0","primitives":[{"indices":3,"material":0,"attributes":{"POSITION":0,"NORMAL":1,"TEXCOORD_0":2}}]},{"name":"Mesh0","primitives":[{"indices":7,"material":1,"attributes":{"POSITION":4,"NORMAL":5,"TEXCOORD_0":6}}]},{"name":"Mesh0","primitives":[{"indices":11,"material":2,"attributes":{"POSITION":8,"NORMAL":9,"TEXCOORD_0":10}}]},{"name":"Mesh0","primitives":[{"indices":15,"material":3,"attributes":{"POSITION":12,"NORMAL":13,"TEXCOORD_0":14}}]},{"name":"Mesh0","primitives":[{"indices":19,"material":4,"attributes":{"POSITION":16,"NORMAL":17,"TEXCOORD_0":18}}]},{"name":"Mesh0","primitives":[{"indices":23,"material":5,"attributes":{"POSITION":20,"NORMAL":21,"TEXCOORD_0":22}}]},{"name":"Mesh0","primitives":[{"indices":27,"material":6,"attributes":{"POSITION":24,"NORMAL":25,"TEXCOORD_0":26}}]},{"name":"Mesh0","primitives":[{"indices":31,"material":7,"attributes":{"POSITION":28,"NORMAL":29,"TEXCOORD_0":30}}]},{"name":"Mesh0","primitives":[{"indices":35,"material":8,"attributes":{"POSITION":32,"NORMAL":33,"TEXCOORD_0":34}}]},{"name":"Mesh0","primitives":[{"indices":39,"material":9,"attributes":{"POSITION":36,"NORMAL":37,"TEXCOORD_0":38}}]},{"name":"Mesh0","primitives":[{"indices":43,"material":10,"attributes":{"POSITION":40,"NORMAL":41,"TEXCOORD_0":42}}]}],"accessors":[{"bufferView":0,"componentType":5126,"count":3770,"type":"VEC3","min":[-2.08291,7.197482,2.1814628],"max":[0.4056859,7.920953,7.0199533]},{"bufferView":1,"componentType":5126,"count":3770,"type":"VEC3"},{"bufferView":2,"componentType":5126,"count":3770,"type":"VEC2"},{"bufferView":3,"componentType":5123,"count":33876,"type":"SCALAR"},{"bufferView":4,"componentType":5126,"count":1750,"type":"VEC3","min":[-0.09752619,7.224908,2.1980016],"max":[1.4794495,7.9483786,6.6994743]},{"bufferView":5,"componentType":5126,"count":1750,"type":"VEC3"},{"bufferView":6,"componentType":5126,"count":1750,"type":"VEC2"},{"bufferView":7,"componentType":5123,"count":15696,"type":"SCALAR"},{"bufferView":8,"componentType":5126,"count":1834,"type":"VEC3","min":[0.24664807,7.2034636,2.1881657],"max":[2.0158148,7.9269342,4.9626484]},{"bufferView":9,"componentType":5126,"count":1834,"type":"VEC3"},{"bufferView":10,"componentType":5126,"count":1834,"type":"VEC2"},{"bufferView":11,"componentType":5123,"count":16452,"type":"SCALAR"},{"bufferView":12,"componentType":5126,"count":584,"type":"VEC3","min":[-3.584742,7.174341,0.5665131],"max":[-2.328971,7.897812,1.9594666]},{"bufferView":13,"componentType":5126,"count":584,"type":"VEC3"},{"bufferView":14,"componentType":5126,"count":584,"type":"VEC2"},{"bufferView":15,"componentType":5123,"count":5220,"type":"SCALAR"},{"bufferView":16,"componentType":5126,"count":484,"type":"VEC3","min":[1.1876624,7.2186046,0.73100823],"max":[2.4434643,7.9420753,1.9542631]},{"bufferView":17,"componentType":5126,"count":484,"type":"VEC3"},{"bufferView":18,"componentType":5126,"count":484,"type":"VEC2"},{"bufferView":19,"componentType":5123,"count":4320,"type":"SCALAR"},{"bufferView":20,"componentType":5126,"count":688,"type":"VEC3","min":[-4.810313,7.160295,0.75835025],"max":[-3.6695647,7.8837657,1.9343121]},{"bufferView":21,"componentType":5126,"count":688,"type":"VEC3"},{"bufferView":22,"componentType":5126,"count":688,"type":"VEC2"},{"bufferView":23,"componentType":5123,"count":6156,"type":"SCALAR"},{"bufferView":24,"componentType":5126,"count":482,"type":"VEC3","min":[-2.1338694,7.185228,0.7355968],"max":[-1.1418266,7.9086986,1.9305234]},{"bufferView":25,"componentType":5126,"count":482,"type":"VEC3"},{"bufferView":26,"componentType":5126,"count":482,"type":"VEC2"},{"bufferView":27,"componentType":5123,"count":4284,"type":"SCALAR"},{"bufferView":28,"componentType":5126,"count":688,"type":"VEC3","min":[-0.99266213,7.196444,0.75283897],"max":[0.14808977,7.9199147,1.9288008]},{"bufferView":29,"componentType":5126,"count":688,"type":"VEC3"},{"bufferView":30,"componentType":5126,"count":688,"type":"VEC2"},{"bufferView":31,"componentType":5123,"count":6156,"type":"SCALAR"},{"bufferView":32,"componentType":5126,"count":498,"type":"VEC3","min":[0.3096583,7.2066636,0.75134706],"max":[1.073224,7.9301343,1.9273088]},{"bufferView":33,"componentType":5126,"count":498,"type":"VEC3"},{"bufferView":34,"componentType":5126,"count":498,"type":"VEC2"},{"bufferView":35,"componentType":5123,"count":4428,"type":"SCALAR"},{"bufferView":36,"componentType":5126,"count":788,"type":"VEC3","min":[2.6382806,7.2296195,0.7478171],"max":[3.573991,7.95309,1.92378]},{"bufferView":37,"componentType":5126,"count":788,"type":"VEC3"},{"bufferView":38,"componentType":5126,"count":788,"type":"VEC2"},{"bufferView":39,"componentType":5123,"count":7056,"type":"SCALAR"},{"bufferView":40,"componentType":5126,"count":778,"type":"VEC3","min":[3.7836323,7.2419147,0.74596584],"max":[4.92898,7.9653854,1.9219276]},{"bufferView":41,"componentType":5126,"count":778,"type":"VEC3"},{"bufferView":42,"componentType":5126,"count":778,"type":"VEC2"},{"bufferView":43,"componentType":5123,"count":6948,"type":"SCALAR"}],"bufferViews":[{"target":34962,"buffer":0,"byteLength":45240,"byteOffset":0},{"target":34962,"buffer":0,"byteLength":45240,"byteOffset":45240},{"target":34962,"buffer":0,"byteLength":30160,"byteOffset":90480},{"target":34963,"buffer":0,"byteLength":67752,"byteOffset":120640},{"target":34962,"buffer":0,"byteLength":21000,"byteOffset":188392},{"target":34962,"buffer":0,"byteLength":21000,"byteOffset":209392},{"target":34962,"buffer":0,"byteLength":14000,"byteOffset":230392},{"target":34963,"buffer":0,"byteLength":31392,"byteOffset":244392},{"target":34962,"buffer":0,"byteLength":22008,"byteOffset":275784},{"target":34962,"buffer":0,"byteLength":22008,"byteOffset":297792},{"target":34962,"buffer":0,"byteLength":14672,"byteOffset":319800},{"target":34963,"buffer":0,"byteLength":32904,"byteOffset":334472},{"target":34962,"buffer":0,"byteLength":7008,"byteOffset":367376},{"target":34962,"buffer":0,"byteLength":7008,"byteOffset":374384},{"target":34962,"buffer":0,"byteLength":4672,"byteOffset":381392},{"target":34963,"buffer":0,"byteLength":10440,"byteOffset":386064},{"target":34962,"buffer":0,"byteLength":5808,"byteOffset":396504},{"target":34962,"buffer":0,"byteLength":5808,"byteOffset":402312},{"target":34962,"buffer":0,"byteLength":3872,"byteOffset":408120},{"target":34963,"buffer":0,"byteLength":8640,"byteOffset":411992},{"target":34962,"buffer":0,"byteLength":8256,"byteOffset":420632},{"target":34962,"buffer":0,"byteLength":8256,"byteOffset":428888},{"target":34962,"buffer":0,"byteLength":5504,"byteOffset":437144},{"target":34963,"buffer":0,"byteLength":12312,"byteOffset":442648},{"target":34962,"buffer":0,"byteLength":5784,"byteOffset":454960},{"target":34962,"buffer":0,"byteLength":5784,"byteOffset":460744},{"target":34962,"buffer":0,"byteLength":3856,"byteOffset":466528},{"target":34963,"buffer":0,"byteLength":8568,"byteOffset":470384},{"target":34962,"buffer":0,"byteLength":8256,"byteOffset":478952},{"target":34962,"buffer":0,"byteLength":8256,"byteOffset":487208},{"target":34962,"buffer":0,"byteLength":5504,"byteOffset":495464},{"target":34963,"buffer":0,"byteLength":12312,"byteOffset":500968},{"target":34962,"buffer":0,"byteLength":5976,"byteOffset":513280},{"target":34962,"buffer":0,"byteLength":5976,"byteOffset":519256},{"target":34962,"buffer":0,"byteLength":3984,"byteOffset":525232},{"target":34963,"buffer":0,"byteLength":8856,"byteOffset":529216},{"target":34962,"buffer":0,"byteLength":9456,"byteOffset":538072},{"target":34962,"buffer":0,"byteLength":9456,"byteOffset":547528},{"target":34962,"buffer":0,"byteLength":6304,"byteOffset":556984},{"target":34963,"buffer":0,"byteLength":14112,"byteOffset":563288},{"target":34962,"buffer":0,"byteLength":9336,"byteOffset":577400},{"target":34962,"buffer":0,"byteLength":9336,"byteOffset":586736},{"target":34962,"buffer":0,"byteLength":6224,"byteOffset":596072},{"target":34963,"buffer":0,"byteLength":13896,"byteOffset":602296}],"buffers":[{"byteLength":616192,"uri":"data:application/octet-stream;base64,"}]}