<svg width="143" height="108" viewBox="0 0 143 108" fill="none" xmlns="http://www.w3.org/2000/svg">
<path d="M77.4561 0.593361C77.2323 1.15161 77.624 2.43558 78.2956 3.66372C79.5267 5.78506 80.0304 10.5302 79.0231 11.0884C78.7992 11.2559 77.9598 10.7535 77.2883 10.0277C74.77 7.34814 72.3636 8.68794 74.714 11.4233C76.7286 13.8796 76.8965 14.8845 75.9452 19.6296C75.3855 22.4766 75.1057 26.4402 75.2176 31.0736C75.3855 39.7823 74.9378 40.5638 72.0838 36.4328C69.6214 32.9158 69.4535 31.0736 71.1884 26.1611C72.4755 22.5325 72.3076 20.6902 70.7966 21.0252C70.237 21.1368 69.3976 22.6441 68.6141 25.1004C67.9426 27.2217 67.1591 28.9523 66.8793 28.9523C66.5995 28.8965 66.0398 27.9474 65.5921 26.831C64.8646 24.9329 64.9206 24.7096 66.3196 22.5883C67.1031 21.3601 67.7747 20.132 67.7747 19.8529C67.7747 18.7922 66.0398 18.7364 65.1444 19.797C63.6894 21.4718 63.2977 21.1927 63.2977 18.4014C63.2977 16.5034 63.6894 15.3311 64.9766 13.5447C66.2637 11.8141 66.4875 11.0884 66.0398 10.5302C65.3683 9.74861 64.8087 9.91608 63.1298 11.3675C62.1225 12.2049 62.1225 12.0932 62.5142 8.74376C62.85 5.78506 62.7381 5.22681 61.8986 4.94769C61.339 4.72439 60.7794 4.89186 60.4996 5.33846C59.6042 6.67825 59.3244 11.0884 59.828 14.7728C60.1638 16.7825 60.2757 18.5131 60.1638 18.6247C60.0519 18.7364 59.2124 18.0107 58.2611 17.0058C56.862 15.5544 56.4143 15.3311 55.7428 15.8893C55.0153 16.5034 55.0153 16.7267 55.7428 18.1223C56.5822 19.6854 59.3244 22.03 60.3876 22.03C60.8353 22.03 62.1784 24.8213 62.1784 25.7145C62.1784 26.4402 60.3317 25.7145 58.8767 24.4863C57.0859 23.0349 55.463 22.979 55.463 24.4863C55.463 25.7703 59.1005 28.5615 61.283 28.9523C62.85 29.2314 63.6335 29.9013 65.0325 31.9668C66.0398 33.4183 68.2224 36.4328 69.9012 38.6658L72.9792 42.6852L71.748 46.4812C71.0205 48.5468 70.3489 51.3938 70.181 52.8453C69.6774 56.8088 69.0618 55.5807 68.782 50.054C68.4462 44.8623 67.4949 41.8478 66.0958 41.8478C65.2004 41.8478 65.2004 41.8478 65.872 49.105L66.2077 53.0127L63.4096 50.3331L60.6115 47.5977L61.4509 43.9691C62.1784 40.9546 62.1784 40.2289 61.5629 39.8381C60.4436 39.1682 59.4923 40.2847 58.9886 42.8526L58.5409 45.1414L57.4776 43.5225C56.5263 42.0711 56.4703 41.7361 57.2538 39.3915C57.7015 37.9401 57.9813 36.4886 57.8134 36.0978C57.4216 34.9255 56.0226 35.3721 55.407 36.8794C54.7355 38.7774 54.5676 38.61 53.3364 34.5348C52.5529 31.9668 52.1052 31.2411 51.2658 31.2411C50.3704 31.2411 50.1466 31.576 50.3144 33.0833C50.4264 34.8139 50.3704 34.8697 48.6356 34.7581C47.1246 34.5906 46.7888 34.8139 46.7888 35.7071C46.7888 36.5444 47.4044 36.991 49.0833 37.5493C50.8181 38.1075 51.6016 38.7216 52.3291 40.2847C53.2245 42.1827 53.2245 42.2386 52.2731 41.8478C50.2585 40.9546 48.4677 41.2337 48.4677 42.3502C48.4677 43.1876 49.3071 43.8017 51.7695 44.7507C56.6941 46.6487 59.1005 49.2725 55.2951 48.5468C53.952 48.2676 53.2245 48.4351 52.6649 49.105C51.6016 50.389 52.497 50.8914 56.4703 51.1705C59.7161 51.3938 60.1638 51.5613 62.5142 53.9059C63.8573 55.2457 64.7527 56.418 64.4729 56.5297C64.1371 56.6413 62.7381 56.1947 61.283 55.5807C59.3244 54.6875 58.4849 54.5758 57.9253 55.0224C57.4776 55.3574 57.1418 55.8598 57.1418 56.1389C57.1418 56.9763 61.283 58.7627 64.6408 59.3767C66.5435 59.7117 68.2224 60.3816 68.6701 60.9398C69.7333 62.3354 71.1324 66.6339 71.1324 68.4203C71.1324 70.2067 72.5315 71.6582 73.4269 70.765C73.8746 70.3184 73.8186 68.6436 73.3709 65.1267C72.2516 56.8646 72.8113 51.2822 75.6094 44.0808C77.8479 38.3867 78.0158 37.5493 78.0717 32.3018C78.1277 27.1101 78.2396 26.496 79.6946 24.4305C80.5341 23.2024 81.8772 21.5834 82.6047 20.9135C85.5147 18.1781 83.3881 16.6709 80.4221 19.2946L78.4635 20.9694L78.9671 19.4063C79.191 18.5689 80.0864 16.1684 80.8698 14.0471C82.6047 9.58113 82.7166 6.45495 81.2616 3.21712C79.9744 0.481712 78.0158 -0.858078 77.4561 0.593361Z" fill="#0E046C"/>
<path d="M93.6293 8.29714C93.7412 10.3068 93.7412 11.9816 93.5734 11.9816C93.4055 11.9816 92.7339 11.4791 92.0624 10.8093C91.3908 10.1394 90.5514 9.80441 90.2156 10.0277C89.3202 10.5301 89.4881 12.3165 90.4954 13.1539C92.3981 14.717 93.7412 19.4063 92.566 20.5227C92.3422 20.746 91.5027 20.2436 90.6074 19.4063C89.2083 18.0665 88.9285 18.0106 88.201 18.7364C87.4735 19.4621 87.5854 19.9087 89.3202 22.6441C91.111 25.4911 91.167 25.8819 90.6074 27.78C90.2716 28.8965 89.8239 29.8455 89.656 29.8455C89.4321 29.8455 88.8725 28.6173 88.3129 27.0542C87.2496 24.0955 85.6267 22.6999 84.6754 23.8722C84.2836 24.3188 84.5075 25.4353 85.4029 27.6125C86.1863 29.2872 86.746 31.6319 86.8019 32.86C86.8019 35.2605 85.7386 39.3357 85.0671 39.3357C84.2836 39.3357 83.4442 35.8187 83.4442 32.5809C83.4442 30.0688 83.2763 29.2872 82.6048 29.2872C80.4222 29.2872 80.0305 34.3114 81.8772 39.8939L83.0524 43.6342L81.3736 47.2069L79.6947 50.7797L78.9112 47.9885C77.848 44.3041 76.3929 44.1366 76.6168 47.7094C76.7287 49.105 76.8406 54.8549 76.8966 60.4932C76.9526 67.8062 77.1764 70.8208 77.6801 70.9882C78.7993 71.379 79.3589 69.3693 79.6947 63.8985C80.0305 57.4229 81.1497 54.0734 87.9212 39.9497L92.8458 29.7338L95.8118 28.5057C97.8824 27.6683 99.1136 26.7751 99.8411 25.547C100.792 23.8722 100.792 23.7048 99.9531 23.3698C99.4494 23.1465 98.554 23.4815 97.8265 24.0955C97.1549 24.7096 96.0357 25.547 95.3641 25.8819C94.2449 26.4402 94.077 26.3843 94.133 25.547C94.1889 23.7048 94.9164 22.6999 97.3228 20.9135C100.065 18.9038 101.352 16.7825 100.345 15.7777C99.8411 15.2752 99.2255 15.5544 97.7146 17.0058L95.6999 18.9597L96.0357 13.6563C96.4274 7.79472 95.9238 5.11514 94.4128 4.83601C93.4614 4.61272 93.4055 5.00349 93.6293 8.29714Z" fill="#0E046C"/>
<path d="M101.072 34.8697C100.568 36.991 100.009 38.7774 99.8966 38.7774C99.7287 38.7774 99.393 38.1634 99.1131 37.3818C98.5535 35.8746 97.0425 35.4838 96.5389 36.7677C96.371 37.2143 96.5948 38.7774 97.0425 40.2289C97.6022 42.1827 97.6581 43.2992 97.2664 44.1924C96.4829 45.923 95.9233 45.8113 95.4756 43.8575C95.0279 41.792 93.7408 40.5638 92.8454 41.457C92.3977 41.9036 92.5096 42.9643 93.1811 45.4764L94.1325 48.8817L92.1738 51.7846C91.0546 53.4035 89.5436 55.4132 88.7601 56.3622L87.3611 58.0369L87.6968 55.2457C87.9207 53.6826 88.4243 51.4496 88.872 50.2773C89.4876 48.3793 89.4876 47.9327 88.8161 47.2628C88.1445 46.5929 87.9207 46.6487 87.0813 47.9327C85.906 49.7191 85.2905 52.2312 84.563 58.3719C84.2831 60.9957 83.6116 64.2335 83.1639 65.5733C82.7162 66.8572 82.3245 68.6995 82.3245 69.5927C82.3245 72.4397 84.0033 71.2674 85.3464 67.4713C87.1932 62.4471 88.5922 60.7724 91.2784 60.3258C94.916 59.7675 97.9939 58.3161 97.9939 57.1996C97.9939 55.804 96.8187 55.469 95.1398 56.418C93.7967 57.1438 91.838 57.4787 91.838 56.9205C91.838 55.7481 94.6362 53.1802 96.2591 52.7894C97.3783 52.4545 99.337 51.9521 100.68 51.6171C102.415 51.1705 103.03 50.7239 103.03 49.9424C103.03 48.6584 102.023 48.5468 99.1691 49.3841C98.1058 49.6632 97.1545 49.8307 97.0425 49.7749C96.9866 49.6632 97.4902 48.7142 98.2177 47.6536C99.1691 46.2579 100.4 45.4206 102.807 44.5832C105.269 43.7458 106.108 43.1876 106.108 42.3502C106.108 41.2337 105.101 41.1221 102.583 41.8478C101.352 42.2386 101.352 42.2386 102.135 40.3964C102.751 38.9449 103.534 38.275 105.381 37.6051C106.724 37.0469 107.899 36.2653 107.955 35.7071C108.123 34.8697 107.843 34.7581 106.164 34.9814C104.15 35.2047 104.15 35.2047 104.15 33.0833C104.15 31.3528 103.926 30.962 103.086 30.962C102.247 30.962 101.855 31.7435 101.072 34.8697Z" fill="#0E046C"/>
<path d="M23.9008 87.9031C17.2413 89.9128 15.7863 100.073 21.6064 103.869C23.0054 104.762 33.5263 108 35.1492 108C35.541 108 35.8767 107.665 35.8767 107.218C35.8767 106.381 35.3171 106.158 32.0713 105.488L30.2246 105.097L32.0713 104.148C34.8694 102.641 36.0446 100.631 36.3244 97.0025C36.4923 94.323 36.3244 93.4298 35.2052 91.8108C32.8548 88.2939 28.098 86.675 23.9008 87.9031ZM29.9447 89.8012C32.8548 91.0293 34.1979 93.1506 34.1979 96.6118C34.1979 100.185 32.4071 102.641 29.2172 103.534C20.4312 105.879 16.0661 93.4856 24.4045 89.8012C26.587 88.8521 27.6503 88.8521 29.9447 89.8012Z" fill="#0E046C"/>
<path d="M94.3564 87.7356C92.6216 88.1822 89.7115 90.5827 88.7602 92.3691C87.4731 94.8254 87.6969 99.1239 89.2079 101.301C92.7895 106.716 101.016 106.884 104.877 101.748C105.661 100.743 106.108 99.0681 106.276 97.0025C106.444 94.323 106.276 93.4298 105.157 91.8108C102.975 88.5172 98.3297 86.7866 94.3564 87.7356ZM99.8967 89.8012C102.807 91.0293 104.15 93.1506 104.15 96.6118C104.15 100.185 102.359 102.641 99.1692 103.534C90.3831 105.879 86.018 93.4856 94.3564 89.8012C96.5389 88.8521 97.6022 88.8521 99.8967 89.8012Z" fill="#0E046C"/>
<path d="M5.20904 91.9225C4.25768 94.1555 2.63478 98.0632 1.51553 100.575C-0.219298 104.651 -0.331223 105.209 0.508211 105.209C1.17976 105.209 2.01919 104.204 2.91459 102.25L4.25768 99.3472H8.17504H12.0924L13.4355 102.25C14.3869 104.316 15.1703 105.209 15.8978 105.209C16.5134 105.209 16.8492 104.93 16.6813 104.483C16.5134 104.148 14.8346 100.24 12.9318 95.8302C9.90987 89.0196 9.23832 87.9031 8.17504 87.9031C7.16772 87.9031 6.6081 88.6288 5.20904 91.9225ZM10.0778 93.9322C10.7493 95.5511 11.253 97.1142 11.253 97.3933C11.253 97.7283 9.85391 97.9516 8.11908 97.9516C5.09712 97.9516 4.98519 97.8957 5.32097 96.6676C5.93655 94.0438 8.00715 90.0245 8.45485 90.4711C8.73466 90.7502 9.46217 92.3133 10.0778 93.9322Z" fill="#0E046C"/>
<path d="M39.2336 94.2671C39.2336 99.9054 39.3456 100.799 40.5208 102.473C43.095 106.325 49.5867 106.549 52.3288 102.808C53.3361 101.469 53.504 100.24 53.6719 94.5463C53.8958 88.1264 53.8398 87.9031 52.7205 87.9031C51.6013 87.9031 51.5453 88.1822 51.5453 94.0997C51.5453 97.505 51.2655 100.743 50.9298 101.413C50.1463 102.864 47.1803 104.092 45.2216 103.702C42.1996 103.087 41.4721 101.301 41.4721 94.2671C41.4721 88.2939 41.4162 87.9031 40.3529 87.9031C39.2896 87.9031 39.2336 88.2939 39.2336 94.2671Z" fill="#0E046C"/>
<path d="M61.1714 91.9225C60.2201 94.1555 58.5972 98.0632 57.4779 100.575C55.7431 104.651 55.6312 105.209 56.4706 105.209C57.1422 105.209 57.9816 104.204 58.877 102.25L60.2201 99.3472H64.1374H68.0548L69.3979 102.25C70.3493 104.316 71.1327 105.209 71.8602 105.209C72.4758 105.209 72.8116 104.93 72.6437 104.483C72.4758 104.148 70.797 100.24 68.8942 95.8302C65.8723 89.0196 65.2007 87.9031 64.1374 87.9031C63.1301 87.9031 62.5705 88.6288 61.1714 91.9225ZM66.0402 93.9322C66.7117 95.5511 67.2154 97.1142 67.2154 97.3933C67.2154 97.7283 65.8163 97.9516 64.0815 97.9516C61.0595 97.9516 60.9476 97.8957 61.2834 96.6676C61.899 94.0438 63.9696 90.0245 64.4173 90.4711C64.6971 90.7502 65.4246 92.3133 66.0402 93.9322Z" fill="#0E046C"/>
<path d="M75.0508 96.5559C75.0508 104.762 75.1067 105.209 76.17 105.209C77.1214 105.209 77.2333 104.762 77.4012 101.134L77.5691 97.1142L81.3745 96.9467C84.2286 96.8351 85.124 96.6118 85.124 95.9977C85.124 95.3278 84.2846 95.1603 81.2066 95.1603H77.2893V92.3691V89.5779H81.7663C85.3478 89.5779 86.2432 89.4104 86.2432 88.7405C86.2432 88.0706 85.2359 87.9031 80.647 87.9031H75.0508V96.5559Z" fill="#0E046C"/>
<path d="M109.187 96.556C109.187 104.818 109.243 105.209 110.306 105.209C111.314 105.209 111.426 104.818 111.426 101.301V97.3933H113.608C115.735 97.3933 115.902 97.5608 118.253 101.301C120.1 104.26 120.995 105.153 121.946 105.209C123.401 105.209 123.457 105.32 120.268 100.631C117.917 97.0584 117.805 96.8351 118.924 96.8351C120.1 96.8351 122.058 94.0997 122.058 92.5366C122.058 91.755 121.331 90.4711 120.435 89.522C118.868 87.959 118.533 87.9031 114 87.9031H109.187V96.556ZM118.757 90.1361C120.1 90.8618 120.156 93.3181 118.868 94.7137C118.197 95.4395 117.134 95.7186 114.671 95.7186H111.426V92.6482V89.5779H114.559C116.238 89.5779 118.141 89.857 118.757 90.1361Z" fill="#0E046C"/>
<path d="M125.976 96.5559C125.976 103.869 126.088 105.209 126.815 105.209C127.543 105.209 127.654 104.036 127.654 97.9516C127.654 93.9322 127.822 90.6944 128.102 90.6944C128.326 90.6944 129.613 92.4807 131.012 94.6021C132.411 96.7234 133.81 98.5098 134.146 98.5098C134.482 98.5098 135.993 96.6676 137.504 94.4346L140.246 90.4152L140.414 97.7841C140.526 104.762 140.638 105.209 141.645 105.209C142.708 105.209 142.764 104.818 142.764 96.5559V87.9031H141.253C139.91 87.9031 139.295 88.573 137.168 91.8109C135.769 93.9322 134.482 95.7186 134.314 95.7186C134.146 95.7186 132.803 93.9322 131.292 91.8109C129.277 88.8521 128.27 87.9031 127.263 87.9031H125.976V96.5559Z" fill="#0E046C"/>
</svg>
