<svg width="233" height="193" viewBox="0 0 233 193" fill="none" xmlns="http://www.w3.org/2000/svg">
<path d="M126.427 1.83564C126.064 2.8243 126.699 5.09821 127.788 7.27326C129.784 11.0302 130.6 19.4338 128.967 20.4224C128.604 20.719 127.244 19.8292 126.155 18.544C122.073 13.7984 118.172 16.1712 121.982 21.0156C125.248 25.3657 125.52 27.1453 123.978 35.5489C123.071 40.5911 122.617 47.6105 122.799 55.8164C123.071 71.2395 122.345 72.6236 117.719 65.3075C113.727 59.079 113.455 55.8164 116.267 47.1162C118.354 40.6899 118.082 37.4273 115.632 38.0205C114.725 38.2183 113.365 40.8877 112.095 45.2378C111.006 48.9947 109.736 52.0595 109.282 52.0595C108.829 51.9606 107.922 50.2799 107.196 48.3026C106.017 44.9412 106.108 44.5457 108.375 40.7888C109.645 38.6137 110.734 36.4387 110.734 35.9444C110.734 34.0659 107.922 33.967 106.47 35.8455C104.112 38.8115 103.477 38.3171 103.477 33.3738C103.477 30.0124 104.112 27.9362 106.198 24.7725C108.285 21.7077 108.647 20.4224 107.922 19.4338C106.833 18.0496 105.926 18.3462 103.205 20.9168C101.572 22.3997 101.572 22.202 102.207 16.2701C102.751 11.0302 102.57 10.0415 101.209 9.54718C100.302 9.15172 99.3948 9.44831 98.9412 10.2392C97.4898 12.612 97.0362 20.4224 97.8527 26.9476C98.3969 30.5067 98.5784 33.5716 98.3969 33.7693C98.2155 33.967 96.8548 32.6818 95.3127 30.9022C93.0449 28.3317 92.3192 27.9362 91.2306 28.9249C90.0513 30.0124 90.0513 30.4079 91.2306 32.8795C92.5913 35.6478 97.0362 39.8001 98.7598 39.8001C99.4855 39.8001 101.663 44.7434 101.663 46.3253C101.663 47.6105 98.6691 46.3253 96.3105 44.1502C93.4077 41.5797 90.7771 41.4809 90.7771 44.1502C90.7771 46.4241 96.6734 51.3674 100.211 52.0595C102.751 52.5538 104.021 53.7402 106.289 57.3983C107.922 59.9688 111.46 65.3075 114.181 69.2622L119.17 76.3805L117.175 83.1034C115.995 86.7614 114.907 91.8036 114.635 94.3741C113.818 101.394 112.82 99.2185 112.367 89.4308C111.822 80.2363 110.28 74.8975 108.012 74.8975C106.561 74.8975 106.561 74.8975 107.65 87.7501L108.194 94.6707L103.658 89.9251L99.1226 85.0807L100.483 78.6544C101.663 73.3157 101.663 72.0304 100.665 71.3383C98.8505 70.152 97.3084 72.1293 96.492 76.6771L95.7663 80.7306L94.0427 77.8635C92.5006 75.293 92.4099 74.6998 93.6799 70.5474C94.4056 67.9769 94.8591 65.4064 94.587 64.7143C93.952 62.6381 91.6842 63.4291 90.6863 66.0984C89.5978 69.4599 89.3256 69.1633 87.33 61.9461C86.06 57.3983 85.3343 56.113 83.9736 56.113C82.5222 56.113 82.1593 56.7062 82.4315 59.3756C82.6129 62.4404 82.5222 62.5393 79.7101 62.3415C77.2608 62.045 76.7166 62.4404 76.7166 64.0223C76.7166 65.5053 77.7144 66.2962 80.4358 67.2848C83.2479 68.2735 84.5179 69.361 85.6971 72.1293C87.1485 75.4907 87.1485 75.5896 85.6064 74.8975C82.3408 73.3157 79.4379 73.81 79.4379 75.7873C79.4379 77.2703 80.7986 78.3578 84.79 80.0385C92.7727 83.4 96.6734 88.0467 90.5049 86.7614C88.3278 86.2671 87.1485 86.5637 86.2414 87.7501C84.5179 90.024 85.9693 90.9138 92.4099 91.4081C97.6712 91.8036 98.3969 92.1002 102.207 96.2525C104.384 98.6253 105.835 100.702 105.382 100.899C104.838 101.097 102.57 100.306 100.211 99.2185C97.0362 97.6367 95.6755 97.4389 94.7684 98.2299C94.0427 98.8231 93.4984 99.7128 93.4984 100.207C93.4984 101.69 100.211 104.854 105.654 105.941C108.738 106.535 111.46 107.721 112.185 108.71C113.909 111.181 116.177 118.794 116.177 121.958C116.177 125.121 118.444 127.692 119.896 126.11C120.622 125.319 120.531 122.353 119.805 116.125C117.991 101.492 118.898 91.6058 123.434 78.8521C127.062 68.7678 127.334 67.2848 127.425 57.9914C127.516 48.7969 127.697 47.7094 130.056 44.0514C131.416 41.8763 133.594 39.0092 134.773 37.8228C139.49 32.9784 136.043 30.309 131.235 34.9557L128.06 37.9217L128.876 35.1534C129.239 33.6704 130.691 29.4192 131.961 25.6623C134.773 17.753 134.954 12.2166 132.596 6.48234C130.509 1.63791 127.334 -0.734871 126.427 1.83564Z" fill="black"/>
<path d="M152.643 15.479C152.825 19.0382 152.825 22.0041 152.553 22.0041C152.281 22.0041 151.192 21.1143 150.103 19.9279C149.015 18.7416 147.654 18.1484 147.11 18.5438C145.658 19.4336 145.931 22.5973 147.563 24.0803C150.648 26.8486 152.825 35.1533 150.92 37.1306C150.557 37.5261 149.196 36.6363 147.745 35.1533C145.477 32.7805 145.023 32.6816 143.844 33.9669C142.665 35.2522 142.846 36.0431 145.658 40.8875C148.561 45.9297 148.652 46.6217 147.745 49.9832C147.201 51.9605 146.475 53.6412 146.203 53.6412C145.84 53.6412 144.933 51.4662 144.026 48.6979C142.302 43.458 139.671 40.9864 138.129 43.0626C137.494 43.8535 137.857 45.8308 139.309 49.6866C140.579 52.6526 141.486 56.8049 141.576 58.98C141.576 63.2312 139.853 70.4484 138.764 70.4484C137.494 70.4484 136.134 64.2199 136.134 58.4856C136.134 54.0367 135.861 52.6526 134.773 52.6526C131.235 52.6526 130.6 61.5505 133.594 71.4371L135.499 78.0611L132.777 84.3885L130.056 90.7159L128.786 85.7726C127.062 79.2475 124.704 78.9509 125.067 85.2783C125.248 87.7499 125.429 97.9331 125.52 107.919C125.611 120.87 125.974 126.209 126.79 126.505C128.604 127.197 129.512 123.638 130.056 113.949C130.6 102.481 132.414 96.549 143.391 71.5359L151.373 53.4435L156.181 51.2684C159.538 49.7854 161.533 48.2036 162.712 46.0285C164.255 43.0626 164.255 42.766 162.894 42.1728C162.077 41.7773 160.626 42.3705 159.447 43.458C158.358 44.5456 156.544 46.0285 155.455 46.6217C153.641 47.6104 153.369 47.5115 153.46 46.0285C153.55 42.766 154.73 40.9864 158.63 37.8227C163.075 34.2635 165.162 30.5066 163.529 28.727C162.712 27.8372 161.715 28.3316 159.265 30.9021L156 34.3624L156.544 24.9701C157.179 14.5892 156.363 9.84363 153.913 9.3493C152.371 8.95383 152.281 9.6459 152.643 15.479Z" fill="black"/>
<path d="M164.708 62.5393C163.892 66.2962 162.985 69.4599 162.803 69.4599C162.531 69.4599 161.987 68.3723 161.533 66.9882C160.626 64.3188 158.177 63.6268 157.36 65.9007C157.088 66.6916 157.451 69.4599 158.177 72.0304C159.084 75.4907 159.175 77.468 158.54 79.0499C157.27 82.1147 156.363 81.917 155.637 78.4567C154.911 74.7986 152.825 72.6236 151.373 74.2054C150.648 74.9964 150.829 76.8748 151.918 81.3238L153.46 87.3546L150.285 92.4956C148.471 95.3627 146.021 98.9219 144.751 100.603L142.483 103.569L143.028 98.6253C143.391 95.8571 144.207 91.9024 144.933 89.8262C145.931 86.4648 145.931 85.6739 144.842 84.4875C143.753 83.3011 143.391 83.4 142.03 85.6739C140.125 88.8376 139.127 93.2865 137.948 104.162C137.494 108.808 136.406 114.543 135.68 116.915C134.954 119.189 134.319 122.452 134.319 124.034C134.319 129.076 137.041 127 139.218 120.277C142.211 111.379 144.479 108.413 148.833 107.622C154.73 106.633 159.719 104.063 159.719 102.086C159.719 99.614 157.814 99.0208 155.093 100.701C152.915 101.987 149.741 102.58 149.741 101.591C149.741 99.5151 154.276 94.9673 156.907 94.2752C158.721 93.682 161.896 92.7922 164.073 92.199C166.885 91.4081 167.883 90.6172 167.883 89.233C167.883 86.9591 166.25 86.7614 161.624 88.2444C159.9 88.7387 158.358 89.0353 158.177 88.9364C158.086 88.7387 158.903 87.058 160.082 85.1795C161.624 82.7079 163.62 81.2249 167.52 79.7419C171.512 78.2589 172.872 77.2703 172.872 75.7873C172.872 73.81 171.239 73.6122 167.157 74.8975C165.162 75.5896 165.162 75.5896 166.432 72.327C167.43 69.7565 168.7 68.5701 171.693 67.3837C173.87 66.395 175.775 65.0109 175.866 64.0222C176.138 62.5393 175.684 62.3415 172.963 62.737C169.697 63.1325 169.697 63.1325 169.697 59.3756C169.697 56.3107 169.335 55.6187 167.974 55.6187C166.613 55.6187 165.978 57.0028 164.708 62.5393Z" fill="black"/>
<path d="M39.615 156.462C28.8202 160.021 26.4617 178.015 35.8958 184.737C38.1636 186.319 55.2177 192.053 57.8483 192.053C58.4833 192.053 59.0276 191.46 59.0276 190.669C59.0276 189.186 58.1205 188.791 52.8591 187.605L49.8656 186.912L52.8591 185.232C57.3948 182.562 59.2997 179.003 59.7533 172.577C60.0254 167.831 59.7533 166.249 57.939 163.382C54.1291 157.154 46.4185 154.287 39.615 156.462ZM49.412 159.823C54.1291 161.998 56.3062 165.755 56.3062 171.885C56.3062 178.212 53.4034 182.562 48.2328 184.144C33.9908 188.297 26.9152 166.348 40.4314 159.823C43.9693 158.142 45.6928 158.142 49.412 159.823Z" fill="black"/>
<path d="M153.823 156.165C151.011 156.956 146.293 161.207 144.751 164.371C142.665 168.721 143.028 176.334 145.477 180.19C151.283 189.779 164.617 190.076 170.877 180.98C172.147 179.201 172.872 176.235 173.144 172.577C173.417 167.831 173.144 166.249 171.33 163.382C167.792 157.549 160.263 154.484 153.823 156.165ZM162.803 159.823C167.52 161.998 169.697 165.755 169.697 171.885C169.697 178.212 166.795 182.562 161.624 184.144C147.382 188.297 140.306 166.348 153.823 159.823C157.36 158.142 159.084 158.142 162.803 159.823Z" fill="black"/>
<path d="M9.31697 163.58C7.77485 167.535 5.14417 174.455 3.32992 178.904C0.517817 186.122 0.336391 187.11 1.69708 187.11C2.78564 187.11 4.14633 185.331 5.59774 181.87L7.77485 176.729H14.1248H20.4747L22.6518 181.87C24.1939 185.528 25.4639 187.11 26.6431 187.11C27.641 187.11 28.1852 186.616 27.9131 185.825C27.641 185.232 24.9196 178.311 21.8353 170.501C16.9368 158.439 15.8483 156.462 14.1248 156.462C12.4919 156.462 11.5848 157.747 9.31697 163.58ZM17.209 167.139C18.2975 170.006 19.114 172.775 19.114 173.269C19.114 173.862 16.8461 174.258 14.034 174.258C9.13554 174.258 8.95411 174.159 9.49839 171.984C10.4962 167.337 13.8526 160.219 14.5783 161.01C15.0319 161.504 16.2111 164.272 17.209 167.139Z" fill="black"/>
<path d="M64.4705 167.732C64.4705 177.718 64.6519 179.3 66.5569 182.266C70.7296 189.088 81.2523 189.483 85.6973 182.859C87.3301 180.486 87.6022 178.311 87.8744 168.227C88.2372 156.857 88.1465 156.462 86.3323 156.462C84.518 156.462 84.4273 156.956 84.4273 167.436C84.4273 173.467 83.9737 179.201 83.4295 180.387C82.1595 182.958 77.3517 185.133 74.1767 184.441C69.2782 183.353 68.099 180.19 68.099 167.732C68.099 157.154 68.0083 156.462 66.2847 156.462C64.5612 156.462 64.4705 157.154 64.4705 167.732Z" fill="black"/>
<path d="M100.03 163.58C98.4877 167.535 95.8571 174.455 94.0428 178.904C91.2307 186.122 91.0493 187.11 92.41 187.11C93.4985 187.11 94.8592 185.331 96.3106 181.87L98.4877 176.729H104.838H111.188L113.365 181.87C114.907 185.528 116.177 187.11 117.356 187.11C118.354 187.11 118.898 186.616 118.626 185.825C118.354 185.232 115.632 178.311 112.548 170.501C107.65 158.439 106.561 156.462 104.838 156.462C103.205 156.462 102.298 157.747 100.03 163.58ZM107.922 167.139C109.01 170.006 109.827 172.775 109.827 173.269C109.827 173.862 107.559 174.258 104.747 174.258C99.8484 174.258 99.667 174.159 100.211 171.984C101.209 167.337 104.566 160.219 105.291 161.01C105.745 161.504 106.924 164.272 107.922 167.139Z" fill="black"/>
<path d="M122.527 171.786C122.527 186.319 122.618 187.11 124.341 187.11C125.883 187.11 126.065 186.319 126.337 179.893L126.609 172.775L132.777 172.478C137.404 172.28 138.855 171.885 138.855 170.797C138.855 169.611 137.494 169.314 132.505 169.314H126.155V164.371V159.428H133.412C139.218 159.428 140.669 159.131 140.669 157.945C140.669 156.758 139.037 156.462 131.598 156.462H122.527V171.786Z" fill="black"/>
<path d="M177.861 171.786C177.861 186.418 177.952 187.11 179.676 187.11C181.308 187.11 181.49 186.418 181.49 180.19V173.269H185.028C188.475 173.269 188.747 173.566 192.557 180.19C195.55 185.429 197.002 187.011 198.544 187.11C200.902 187.11 200.993 187.308 195.822 179.003C192.013 172.676 191.831 172.28 193.645 172.28C195.55 172.28 198.725 167.436 198.725 164.668C198.725 163.284 197.546 161.01 196.095 159.329C193.555 156.561 193.01 156.462 185.663 156.462H177.861V171.786ZM193.373 160.416C195.55 161.702 195.641 166.052 193.555 168.523C192.466 169.809 190.743 170.303 186.751 170.303H181.49V164.865V159.428H186.57C189.291 159.428 192.375 159.922 193.373 160.416Z" fill="black"/>
<path d="M205.075 171.786C205.075 184.737 205.257 187.11 206.436 187.11C207.615 187.11 207.797 185.034 207.797 174.258C207.797 167.139 208.069 161.405 208.522 161.405C208.885 161.405 210.972 164.569 213.239 168.326C215.507 172.083 217.775 175.246 218.319 175.246C218.864 175.246 221.313 171.984 223.762 168.029L228.207 160.911L228.479 173.961C228.661 186.319 228.842 187.11 230.475 187.11C232.198 187.11 232.289 186.418 232.289 171.786V156.462H229.84C227.663 156.462 226.665 157.648 223.218 163.382C220.95 167.139 218.864 170.303 218.591 170.303C218.319 170.303 216.142 167.139 213.693 163.382C210.427 158.143 208.794 156.462 207.162 156.462H205.075V171.786Z" fill="black"/>
</svg>
